<?xml version="1.0" encoding="UTF-8"?>
<!DOCTYPE svg PUBLIC "-//W3C//DTD SVG 1.1//EN" "http://www.w3.org/Graphics/SVG/1.1/DTD/svg11.dtd">
<svg xmlns="http://www.w3.org/2000/svg" version="1.1" width="24px" height="24px" style="shape-rendering:geometricPrecision; text-rendering:geometricPrecision; image-rendering:optimizeQuality; fill-rule:evenodd; clip-rule:evenodd" xmlns:xlink="http://www.w3.org/1999/xlink">
<g><path style="opacity:1" fill="#11aa87" d="M -0.5,-0.5 C 7.5,-0.5 15.5,-0.5 23.5,-0.5C 23.5,7.5 23.5,15.5 23.5,23.5C 15.5,23.5 7.5,23.5 -0.5,23.5C -0.5,15.5 -0.5,7.5 -0.5,-0.5 Z"/></g>
<g><path style="opacity:1" fill="#f2faf8" d="M 5.5,5.5 C 6.83333,5.5 8.16667,5.5 9.5,5.5C 9.5,6.83333 9.5,8.16667 9.5,9.5C 8.16667,9.5 6.83333,9.5 5.5,9.5C 5.5,8.16667 5.5,6.83333 5.5,5.5 Z"/></g>
<g><path style="opacity:1" fill="#f2faf8" d="M 13.5,5.5 C 14.8333,5.5 16.1667,5.5 17.5,5.5C 17.5,6.83333 17.5,8.16667 17.5,9.5C 16.1667,9.5 14.8333,9.5 13.5,9.5C 13.5,8.16667 13.5,6.83333 13.5,5.5 Z"/></g>
<g><path style="opacity:1" fill="#e9f7f4" d="M 4.5,11.5 C 6.16667,11.5 7.83333,11.5 9.5,11.5C 9.71351,13.1439 9.38017,14.6439 8.5,16C 6.5273,16.4955 4.5273,16.6621 2.5,16.5C 2.39151,14.4862 3.05817,12.8195 4.5,11.5 Z"/></g>
<g><path style="opacity:1" fill="#e2f5f0" d="M 12.5,11.5 C 15.0728,11.1485 17.4062,11.6485 19.5,13C 18.2068,13.49 16.8734,13.6567 15.5,13.5C 15.5,14.5 15.5,15.5 15.5,16.5C 10.5162,16.8558 9.51617,15.1891 12.5,11.5 Z"/></g>
<g><path style="opacity:1" fill="#f3faf9" d="M 17.5,14.5 C 18.1859,15.8484 19.1859,17.015 20.5,18C 19.3333,18.5 18.5,19.3333 18,20.5C 17.2276,19.1509 16.0609,18.3176 14.5,18C 15.448,17.5172 16.448,17.3505 17.5,17.5C 17.5,16.5 17.5,15.5 17.5,14.5 Z"/></g>
</svg>
