<svg xmlns:xlink="http://www.w3.org/1999/xlink" xmlns="http://www.w3.org/2000/svg" viewBox="0 0 24 24" height="24"
    width="24" preserveAspectRatio="xMidYMid meet" class="" fill="none">
    <style>
        path {
            fill: #54656F;
        }

        @media(prefers-color-scheme:dark) {
            path {
                fill: #AEBAC1;
            }
        }
    </style>
    <path
        d="M21.9218 10.6469C21.321 6.08949 17.5557 2.45561 12.9894 2.04404C7.06124 1.50197 2.16447 6.05937 2.05432 11.982C2.01426 14.1101 2.82538 15.9371 3.23595 16.7201L2.0443 20.6651C1.81398 21.4281 2.52497 22.1408 3.28602 21.9099L7.17139 20.7455C8.65344 21.5686 10.3157 22.0002 12.0181 22.0002C17.9663 22.0002 22.7129 16.7602 21.9118 10.6469H21.9218ZM8.06262 14.6823C8.333 15.0838 8.30296 15.6259 7.96249 15.9672C7.51186 16.429 6.76082 16.3386 6.40033 15.7966C5.66931 14.7124 5.23872 13.3974 5.23872 11.992C5.23872 10.5867 5.69936 9.17125 6.49045 8.057C6.84093 7.56512 7.57195 7.53501 8.00254 7.96665C8.35302 8.318 8.38307 8.86007 8.10268 9.2616C7.56193 10.0346 7.2515 10.9782 7.2515 11.992C7.2515 13.0059 7.56193 13.9093 8.08265 14.6723L8.06262 14.6823ZM12.0682 13.4978C11.237 13.4978 10.5661 12.8252 10.5661 11.992C10.5661 11.1588 11.237 10.4863 12.0682 10.4863C12.8993 10.4863 13.5702 11.1588 13.5702 11.992C13.5702 12.8252 12.8993 13.4978 12.0682 13.4978ZM17.5257 15.9471C17.1752 16.439 16.4442 16.4691 16.0236 16.0375C15.6731 15.6861 15.6431 15.1441 15.9235 14.7425C16.4642 13.9696 16.7847 13.0159 16.7847 12.0021C16.7847 10.9882 16.4542 10.0145 15.9035 9.24152C15.6131 8.82995 15.6331 8.27784 15.9836 7.91646C16.4042 7.49485 17.1252 7.51493 17.4857 8.00681C18.3068 9.1311 18.7875 10.5064 18.7875 12.0121C18.7875 13.5179 18.3168 14.8429 17.5257 15.9572V15.9471Z"
        fill="#54656F"></path>
</svg>