<svg xmlns:xlink="http://www.w3.org/1999/xlink" xmlns="http://www.w3.org/2000/svg" viewBox="0 0 24 24" height="24"
    width="24" preserveAspectRatio="xMidYMid meet" class="" fill="none">
    <style>
        path {
            fill: #54656F;
        }

        @media(prefers-color-scheme:dark) {
            path {
                fill: #AEBAC1;
            }
        }
    </style>
    <g clip-path="url(#clip0_20095_12594)" fill="none">
        <path
            d="M4.7595 14.0357C4.65644 14.0313 4.55139 14.029 4.44446 14.029C3.65152 14.029 2.96238 14.1558 2.41872 14.3088C1.95159 14.4403 1.42115 14.656 0.975466 14.9996C0.521192 15.3498 0.107939 15.8739 0.0263682 16.5959C-0.0117388 16.9332 2.95136e-05 17.6554 0.00922726 18.0644C0.0256195 18.7935 0.623061 19.3623 1.33916 19.3623H4.31303C4.13562 18.9875 4.03074 18.5698 4.01771 18.1256C4.00494 17.6905 3.97075 16.5163 4.05525 15.893C4.09928 15.5682 4.17628 15.2639 4.27738 14.982C4.40496 14.6263 4.57082 14.3123 4.7595 14.0357Z"
            fill="#54656F"></path>
        <path
            d="M19.6869 19.3623H22.6608C23.3769 19.3623 23.9744 18.7935 23.9908 18.0644C24 17.6554 24.0117 16.9332 23.9736 16.5959C23.8921 15.8739 23.4788 15.3498 23.0245 14.9996C22.5788 14.656 22.0484 14.4403 21.5813 14.3088C21.0376 14.1558 20.3485 14.029 19.5555 14.029C19.4486 14.029 19.3435 14.0313 19.2405 14.0357C19.4291 14.3123 19.595 14.6263 19.7226 14.982C19.8237 15.2639 19.9007 15.5682 19.9447 15.893C20.0292 16.5163 19.995 17.6905 19.9822 18.1256C19.9692 18.5698 19.8643 18.9875 19.6869 19.3623Z"
            fill="#54656F"></path>
        <path fill-rule="evenodd" clip-rule="evenodd"
            d="M8.52831 13.6265C9.36687 13.3837 10.5649 13.1401 12 13.1401C13.4351 13.1401 14.6331 13.3837 15.4716 13.6265C15.9039 13.7517 16.4206 13.9288 16.8826 14.2131C17.352 14.5019 17.8167 14.934 18.0492 15.5821C18.1097 15.751 18.1563 15.9344 18.183 16.1318C18.243 16.5742 18.22 17.5691 18.2052 18.0735C18.184 18.7987 17.5884 19.3623 16.8756 19.3623H7.12434C6.41155 19.3623 5.81599 18.7987 5.79472 18.0735C5.77992 17.5691 5.75694 16.5742 5.81691 16.1318C5.84367 15.9344 5.89021 15.751 5.95079 15.5821C6.18324 14.934 6.64793 14.5019 7.11736 14.2131C7.57933 13.9288 8.09602 13.7517 8.52831 13.6265Z"
            fill="#54656F"></path>
        <path fill-rule="evenodd" clip-rule="evenodd"
            d="M16.8889 9.97001C16.8889 8.49726 18.0828 7.31001 19.5555 7.31001C21.0283 7.31001 22.2222 8.49726 22.2222 9.97001C22.2222 11.4428 21.0283 12.64 19.5555 12.64C18.0828 12.64 16.8889 11.4428 16.8889 9.97001Z"
            fill="#54656F"></path>
        <path fill-rule="evenodd" clip-rule="evenodd"
            d="M8.44443 8.20001C8.44443 6.23634 10.0363 4.64001 12 4.64001C13.9636 4.64001 15.5555 6.23634 15.5555 8.20001C15.5555 10.1637 13.9636 11.75 12 11.75C10.0363 11.75 8.44443 10.1637 8.44443 8.20001Z"
            fill="#54656F"></path>
        <path fill-rule="evenodd" clip-rule="evenodd"
            d="M1.77777 9.97001C1.77777 8.49726 2.97168 7.31001 4.44444 7.31001C5.91719 7.31001 7.1111 8.49726 7.1111 9.97001C7.1111 11.4428 5.91719 12.64 4.44444 12.64C2.97168 12.64 1.77777 11.4428 1.77777 9.97001Z"
            fill="#54656F"></path>
    </g>
    <defs>
        <clipPath id="clip0_20095_12594">
            <rect width="24" height="24" fill="10101"></rect>
        </clipPath>
    </defs>
</svg>