<svg xmlns:xlink="http://www.w3.org/1999/xlink" xmlns="http://www.w3.org/2000/svg" viewBox="0 0 24 24" height="20"
    width="20" preserveAspectRatio="xMidYMid meet" class="" fill="none">
    <style>
        path {
            fill: #54656F;
        }

        @media(prefers-color-scheme:dark) {
            path {
                fill: #AEBAC1;
            }
        }
    </style>
    <path fill-rule="evenodd" clip-rule="evenodd"
        d="M7.75897 6.43054C8.93584 5.533 10.4057 5 12 5C15.866 5 19 8.13401 19 12C19 13.5943 18.467 15.0642 17.5695 16.241L7.75897 6.43054ZM6.35707 7.85707C5.50399 9.01706 5 10.4497 5 12C5 15.866 8.13401 19 12 19C13.5503 19 14.9829 18.496 16.1429 17.6429L6.35707 7.85707ZM12 3C7.02944 3 3 7.02944 3 12C3 16.9706 7.02944 21 12 21C16.9706 21 21 16.9706 21 12C21 7.02944 16.9706 3 12 3Z"
        fill="#8696A0"></path>
</svg>