<svg xmlns:xlink="http://www.w3.org/1999/xlink" height="20" viewBox="0 0 16 20" fill="none" xmlns="http://www.w3.org/2000/svg" width="16" ><path fill-rule="evenodd" clip-rule="evenodd" d="M2 0C0.9 0 0.01 0.9 0.01 2L0 18C0 19.1 0.89 20 1.99 20H14C15.1 20 16 19.1 16 18V6.83C16 6.3 15.79 5.79 15.41 5.42L10.58 0.59C10.21 0.21 9.7 0 9.17 0H2ZM9 6V1.5L14.5 7H10C9.45 7 9 6.55 9 6ZM4 10C3.44772 10 3 10.4477 3 11C3 11.5523 3.44772 12 4 12H12C12.5523 12 13 11.5523 13 11C13 10.4477 12.5523 10 12 10H4ZM10 15C10 14.4477 9.55228 14 9 14H4C3.44772 14 3 14.4477 3 15C3 15.5523 3.44772 16 4 16H9C9.55228 16 10 15.5523 10 15Z" fill="#7F66FF"></path></svg>