<?xml version="1.0"?>
<svg width="88" height="110" xmlns="http://www.w3.org/2000/svg" xmlns:svg="http://www.w3.org/2000/svg" preserveAspectRatio="xMidYMid meet">
 <title>preview-generic</title>
 <g class="layer">
  <title>Layer 1</title>
  <g id="svg_1">
   <path d="m7.25,2.5l56.93,0a5.5,5.5 0 0 1 3.89,1.61l15.07,15.07a5.5,5.5 0 0 1 1.61,3.89l0,80.93a3.5,3.5 0 0 1 -3.5,3.5l-74,0a3.5,3.5 0 0 1 -3.5,-3.5l0,-98a3.5,3.5 0 0 1 3.5,-3.5z" fill="#bf0000" fill-rule="evenodd" id="svg_2" stroke="#191919" stroke-width="2" transform="matrix(1 0 0 1 0 0)"/>
   <text fill="#ffffff" font-family="Courier" font-size="25" font-weight="bold" id="svg_5" letter-spacing="0" stroke="#0FF" stroke-width="0" style="cursor: move;" text-anchor="middle" textLength="0" transform="matrix(1.61892 0 0 1.56424 5.96588 -18.2394)" word-spacing="0" x="23.18" xml:space="preserve" y="54.55">PDF</text>
  </g>
  <path d="m65.5,3.5l0,15a3,3 0 0 0 3,3l15,0" fill="#FFFFFF" id="svg_3" stroke="#000000" stroke-opacity="0.12"/>
 </g>
</svg>