<svg xmlns:xlink="http://www.w3.org/1999/xlink" xmlns="http://www.w3.org/2000/svg" viewBox="0 0 16 16" height="16"
    width="16" preserveAspectRatio="xMidYMid meet" class="" version="1.1" x="0px" y="0px"
    enable-background="new 0 0 16 16">
    <style>
        path {
            fill: #54656F;
        }

        @media(prefers-color-scheme:dark) {
            path {
                fill: #AEBAC1;
            }
        }
    </style>
    <path fill="#8696A0"
        d="M9.179,14.637c0.061-0.14,0.106-0.29,0.135-0.45 c0.031-0.171,0.044-0.338,0.049-0.543c0.002-0.078,0.003-0.155,0.003-0.233c0-0.043,0-0.043,0.001-0.067c0-0.024,0-0.024,0-0.072 l0.002-0.216c0.01-0.364,0.032-1.205,0.08-1.473c0.052-0.287,0.136-0.538,0.255-0.771c0.122-0.237,0.281-0.453,0.472-0.642 c0.193-0.191,0.412-0.349,0.653-0.469c0.238-0.12,0.493-0.203,0.786-0.255c0.27-0.048,1.098-0.07,1.487-0.08l0.152,0.001 c0.027,0,0.027,0,0.047,0c0.045,0,0.088-0.001,0.325-0.004c0.221-0.006,0.384-0.018,0.554-0.048 c0.177-0.032,0.341-0.081,0.494-0.151c-0.201,0.923-0.671,1.77-1.359,2.429c-0.561,0.538-1.264,1.194-2.057,1.924 C10.667,14.061,9.951,14.444,9.179,14.637z M7.358,14.797c-0.203,0.005-0.406,0.01-0.474,0.012c-0.301,0.007-0.448,0.01-0.507,0.009 c-0.551-0.015-0.96-0.046-1.372-0.119c-0.481-0.086-0.912-0.226-1.314-0.428c-0.416-0.209-0.794-0.48-1.123-0.807 c-0.33-0.326-0.605-0.699-0.816-1.11c-0.205-0.397-0.347-0.824-0.434-1.303c-0.074-0.411-0.106-0.827-0.12-1.356 C1.193,9.5,1.19,9.297,1.189,9.078c-0.002-0.206-0.002-0.37-0.002-0.736V7.668c0-0.274,0-0.396,0.001-0.549 c0-0.064,0.001-0.125,0.001-0.182c0.001-0.223,0.004-0.426,0.009-0.62c0.014-0.529,0.046-0.946,0.121-1.358 c0.087-0.476,0.229-0.903,0.434-1.301c0.211-0.411,0.485-0.784,0.814-1.109c0.33-0.327,0.708-0.599,1.122-0.807 c0.403-0.203,0.834-0.344,1.315-0.429c0.413-0.074,0.822-0.105,1.379-0.12c0.72-0.009,0.989-0.011,1.359-0.011H8.27 c0.896,0.003,1.143,0.005,1.366,0.011c0.55,0.015,0.959,0.046,1.371,0.12c0.482,0.085,0.913,0.226,1.314,0.428 c0.416,0.209,0.794,0.48,1.123,0.806c0.331,0.327,0.605,0.7,0.814,1.109c0.206,0.4,0.348,0.827,0.434,1.302 c0.075,0.412,0.107,0.819,0.121,1.356c0.006,0.198,0.009,0.402,0.01,0.619c0,0.008,0,0.016,0,0.024c0,0.069-0.001,0.132-0.003,0.194 c-0.004,0.162-0.014,0.283-0.033,0.391c-0.019,0.106-0.05,0.197-0.092,0.28c-0.044,0.085-0.1,0.162-0.168,0.229 c-0.069,0.069-0.148,0.125-0.234,0.168s-0.179,0.074-0.29,0.094c-0.108,0.019-0.227,0.028-0.395,0.033 c-0.231,0.003-0.27,0.003-0.311,0.004c-0.018,0-0.018,0-0.039,0l-0.163-0.001c-0.453,0.012-1.325,0.036-1.656,0.096 c-0.388,0.069-0.737,0.183-1.064,0.348c-0.336,0.168-0.643,0.389-0.911,0.655c-0.267,0.263-0.49,0.566-0.661,0.899 c-0.166,0.324-0.281,0.67-0.351,1.054c-0.06,0.33-0.085,1.216-0.096,1.636l-0.002,0.23c0,0.052,0,0.052,0,0.069 c0,0.019,0,0.019-0.001,0.067c0,0.074-0.001,0.143-0.003,0.213c-0.004,0.158-0.014,0.28-0.033,0.388 c-0.02,0.106-0.05,0.197-0.092,0.279c-0.044,0.085-0.1,0.162-0.168,0.229c-0.069,0.069-0.148,0.125-0.234,0.168 c-0.086,0.043-0.179,0.073-0.289,0.093C7.478,14.785,7.421,14.792,7.358,14.797z">
    </path>
</svg>