<svg xmlns:xlink="http://www.w3.org/1999/xlink" xmlns="http://www.w3.org/2000/svg" viewBox="0 0 24 24" height="24" preserveAspectRatio="xMidYMid meet" class="" version="1.1" x="0px" y="0px" enable-background="new 0 0 24 24" width="24" ><title>lock</title><path fill="#8696A0" d="M17.3,7.6h-0.9V5.8c0-2.5-1.9-4.4-4.4-4.4S7.6,3.3,7.6,5.8v1.8H6.7c-1,0-1.8,0.8-1.8,1.8v8.9 c0,1,0.8,1.8,1.8,1.8h10.6c1,0,1.8-0.8,1.8-1.8V9.4C19.1,8.4,18.3,7.6,17.3,7.6z M12,15.8c-1.1,0-2-0.9-2-2s0.9-2,2-2s2,0.9,2,2 S13.1,15.8,12,15.8z M14.7,7.6H9.2V5.8c0-1.5,1.2-2.7,2.7-2.7s2.7,1.2,2.7,2.7v1.8C14.6,7.6,14.7,7.6,14.7,7.6z"></path></svg>