<svg xmlns:xlink="http://www.w3.org/1999/xlink" xmlns="http://www.w3.org/2000/svg" viewBox="0 0 16 18" height="18"
    width="16" preserveAspectRatio="xMidYMid meet" class="mvxzr2tb" version="1.1" x="0px" y="0px"
    enable-background="new 0 0 16 18">
    <path fill="#EA0038"
        d="M14.9,13.3L14.9,13.3C13.7,11.8,10.7,11,8,11s-5.6,0.8-6.9,2.3c-0.6,0.7-0.2,1.9,0.2,2.4 C1.4,15.9,1.6,16,1.7,16c1.1,0,3-0.6,3-0.6c0.4-0.2,0.6-0.5,0.6-0.8c0,0,0-0.6,0-1.1c0.6-1,4.6-1,5.4-0.1c0,0,0,0,0,0.1v1.1 c0,0.2,0.1,0.4,0.2,0.5c0.1,0.1,0.3,0.2,0.4,0.3c0,0,1.9,0.6,3,0.6C14.7,16,15.7,14.3,14.9,13.3z M4.2,5.9l4,3.9L13,5l-0.8-0.8 l-4.1,4L5,5.1h2.1V4h-4v4.1h1.1V5.9z">
    </path>
</svg>