<svg xmlns:xlink="http://www.w3.org/1999/xlink" xmlns="http://www.w3.org/2000/svg" viewBox="0 0 24 24" height="24"
    width="24" preserveAspectRatio="xMidYMid meet" class="" fill="none">
    <style>
        path {
            fill: #54656F;
        }

        @media(prefers-color-scheme:dark) {
            path {
                fill: #AEBAC1;
            }
        }
    </style>
    <path fill-rule="evenodd" clip-rule="evenodd"
        d="M18.8333 3.75C20.3061 3.75 21.5 4.94391 21.5 6.41667V17.5833C21.5 19.0561 20.3061 20.25 18.8333 20.25H5.16667C3.69391 20.25 2.5 19.0561 2.5 17.5833V8.75L0.254242 5.29499C-0.178171 4.62974 0.299248 3.75 1.09269 3.75H18.8333ZM9.03279 12.9911H11.0086V14.9671C11.0086 15.3999 11.2634 15.8175 11.6762 15.9488C12.3609 16.1661 12.991 15.6613 12.991 15.009V12.9911H14.9672C15.4005 12.9911 15.8181 12.7358 15.949 12.3226C16.1659 11.6381 15.6606 11.0089 15.0087 11.0089H12.991V9.03332C12.991 8.60007 12.7361 8.18252 12.3233 8.05119C11.6391 7.83391 11.0086 8.33872 11.0086 8.991V11.0089H8.9909C8.33943 11.0089 7.83413 11.6381 8.05099 12.3226C8.18146 12.7358 8.59949 12.9911 9.03279 12.9911Z"
        fill="#54656F"></path>
</svg>