<svg xmlns:xlink="http://www.w3.org/1999/xlink" xmlns="http://www.w3.org/2000/svg" viewBox="0 0 24 24" height="24"
    width="24" preserveAspectRatio="xMidYMid meet" class="" version="1.1" x="0px" y="0px"
    enable-background="new 0 0 24 24">
    <style>
        path {
            fill: #54656F;
        }

        @media(prefers-color-scheme:dark) {
            path {
                fill: #AEBAC1;
            }
        }
    </style>
    <path fill="#54656F"
        d="M12,7c1.104,0,2-0.896,2-2c0-1.105-0.895-2-2-2c-1.104,0-2,0.894-2,2 C10,6.105,10.895,7,12,7z M12,9c-1.104,0-2,0.894-2,2c0,1.104,0.895,2,2,2c1.104,0,2-0.896,2-2C13.999,9.895,13.104,9,12,9z M12,15 c-1.104,0-2,0.894-2,2c0,1.104,0.895,2,2,2c1.104,0,2-0.896,2-2C13.999,15.894,13.104,15,12,15z">
    </path>
</svg>