<svg version="1.1" xmlns="http://www.w3.org/2000/svg" xmlns:xlink="http://www.w3.org/1999/xlink" width="24px" height="24px" viewBox="0,0,256,256"><g fill="#ffffff" fill-rule="nonzero" stroke="none" stroke-width="1" stroke-linecap="butt" stroke-linejoin="miter" stroke-miterlimit="10" stroke-dasharray="" stroke-dashoffset="0" font-family="none" font-weight="none" font-size="none" text-anchor="none" style="mix-blend-mode: normal"><g transform="translate(127.99712,-53.02184) rotate(45) scale(10.66667,10.66667)"><g transform="translate(24,0) rotate(90)"><path d="M5.3,18.7c0.2,0.2 0.4,0.3 0.7,0.3c0.3,0 0.5,-0.1 0.7,-0.3l5.3,-5.3l5.3,5.3c0.2,0.2 0.5,0.3 0.7,0.3c0.2,0 0.5,-0.1 0.7,-0.3c0.4,-0.4 0.4,-1 0,-1.4l-5.3,-5.3l5.3,-5.3c0.4,-0.4 0.4,-1 0,-1.4c-0.4,-0.4 -1,-0.4 -1.4,0l-5.3,5.3l-5.3,-5.3c-0.4,-0.4 -1,-0.4 -1.4,0c-0.4,0.4 -0.4,1 0,1.4l5.3,5.3l-5.3,5.3c-0.4,0.4 -0.4,1 0,1.4z" id="_icons"></path></g></g></g></svg>