<!DOCTYPE svg PUBLIC "-//W3C//DTD SVG 1.1//EN" "http://www.w3.org/Graphics/SVG/1.1/DTD/svg11.dtd">
<!-- Uploaded to: SVG Repo, www.svgrepo.com, Transformed by: SVG Repo Mixer Tools -->
<svg fill="#00a884" version="1.1" id="Layer_1" xmlns="http://www.w3.org/2000/svg" xmlns:xlink="http://www.w3.org/1999/xlink" width="800px" height="800px" viewBox="-7 -7 84.00 84.00" enable-background="new 0 0 70 70" xml:space="preserve" stroke="#00a884">
<g id="SVGRepo_bgCarrier" stroke-width="0"/>
<g id="SVGRepo_tracerCarrier" stroke-linecap="round" stroke-linejoin="round"/>
<g id="SVGRepo_iconCarrier"> <g> <path d="M34.495,13.583H19.631c-3.466,0-6.291,3.024-6.329,6.38l-0.585,4.643c-0.074,0.547,0.31,1.051,0.857,1.125 c0.045,0.006,0.09,0.009,0.135,0.009c0.493,0,0.922-0.441,0.99-0.943l0.593-4.477c0.006-0.044,0.009-0.242,0.009-0.287 c0-2.284,1.942-4.45,4.33-4.45h14.864c0.552,0,1-0.448,1-1S35.047,13.583,34.495,13.583z"/> <path d="M13.589,27.201c-0.544-0.06-1.042,0.339-1.101,0.888l-0.232,2.176c-0.059,0.549,0.339,1.042,0.888,1.101 c0.036,0.004,0.072,0.006,0.108,0.006c0.504,0,0.938-0.381,0.993-0.894l0.232-2.176C14.536,27.752,14.138,27.259,13.589,27.201z"/> <path d="M59.161,8.583h-8.149c-1.746,0-3.965,0.908-5.522,2.752c-1.815-2.826-4.712-4.752-8.309-4.752H17.248 c-6.17,0-11.205,5.32-11.333,11.478l-1.97,18.244c-0.016,0.144-0.023,0.027-0.023,0.171c0,6.269,5.085,11.107,11.335,11.107h7.022 l-1.39,10.823c-0.151,1.143,0.197,2.47,0.957,3.337c0.76,0.867,1.856,1.452,3.009,1.452c0.271,0,2.744,0.01,6.247-1.164 c2.373-0.793,5.339-4.474,9.982-10.979c3.028-4.244,4.846-7.717,5.761-10.402c1.345,0.697,2.885,0.934,4.168,0.934h8.396 c4.143,0,6.175-2.678,6.175-6.83V16.812C65.583,12.66,63.304,8.583,59.161,8.583z M51.583,12.583h4v6.2c0,0.813-0.916,1.5-2,1.5 s-2-0.687-2-1.5V12.583z M43.583,36.914c0,4.07-11.355,20.369-14.342,21.369s-4.683,0.651-4.683,0.651l2.286-15.351H15.257 c-4.051,0-7.335-2.948-7.335-7.019l1.991-18.438c0-4.069,3.284-7.543,7.335-7.543h19.335l-0.067,0.307 c4.051,0,7.067,3.692,7.067,7.761v16.103V36.914z M61.583,34.753c0,1.949-0.233,2.83-2.175,2.83h-8.396 c-1.939,0-3.429-0.88-3.429-2.83V18.651v-1.839c0-1.431,0.807-3.032,2-3.786v5.757c0,1.93,1.794,3.5,4,3.5s4-1.57,4-3.5v-6.2h1 l-0.087,0.307c1.941,0,3.087,1.973,3.087,3.922V34.753z"/> <path d="M53.583,19.197c0.552,0,1-0.448,1-1v-2c0-0.552-0.448-1-1-1s-1,0.448-1,1v2C52.583,18.749,53.031,19.197,53.583,19.197z"/> </g> </g>
</svg>