<svg xmlns:xlink="http://www.w3.org/1999/xlink" width="20" height="20" viewBox="0 0 24 24" fill="none" xmlns="http://www.w3.org/2000/svg"><path fill-rule="evenodd" clip-rule="evenodd" d="M18 23C20.7614 23 23 20.7614 23 18C23 15.2386 20.7614 13 18 13C15.2386 13 13 15.2386 13 18C13 20.7614 15.2386 23 18 23ZM17.25 15.75C17.25 15.3358 17.5858 15 18 15C18.4142 15 18.75 15.3358 18.75 15.75V17.25H20.25C20.6642 17.25 21 17.5858 21 18C21 18.4142 20.6642 18.75 20.25 18.75H18.75V20.25C18.75 20.6642 18.4142 21 18 21C17.5858 21 17.25 20.6642 17.25 20.25V18.75H15.75C15.3358 18.75 15 18.4142 15 18C15 17.5858 15.3358 17.25 15.75 17.25H17.25V15.75Z" fill="#02A698"></path><path fill-rule="evenodd" clip-rule="evenodd" d="M2 7C2 4.23858 4.23858 2 7 2H17C19.7614 2 22 4.23858 22 7V12.2547C20.8662 11.4638 19.4872 11 18 11C14.134 11 11 14.134 11 18C11 19.4872 11.4638 20.8662 12.2547 22H7C4.23858 22 2 19.7614 2 17V7ZM14 9.5L14.7812 7.78125L16.5 7L14.7812 6.21875L14 4.5L13.2188 6.21875L11.5 7L13.2188 7.78125L14 9.5ZM8 8.5L9.25 11.25L12 12.5L9.25 13.75L8 16.5L6.75 13.75L4 12.5L6.75 11.25L8 8.5Z" fill="#02A698"></path></svg>