<?xml version="1.0" encoding="utf-8"?>
<svg viewBox="0 0 88 110" height="110" width="88" preserveAspectRatio="xMidYMid meet" class="" xmlns="http://www.w3.org/2000/svg">
  <title>preview-generic</title>
  <g transform="translate(4 3)">
    <path stroke-opacity="0.08" stroke="#000000" d="M3-.5h56.929a5.5 5.5 0 0 1 3.889 1.61l15.071 15.072a5.5 5.5 0 0 1 1.611 3.89V101a3.5 3.5 0 0 1-3.5 3.5H3A3.5 3.5 0 0 1-.5 101V3A3.5 3.5 0 0 1 3-.5z" fill="#FFFFFF" fill-rule="evenodd"/>
  </g>
  <path d="M65.5 3.5v15a3 3 0 0 0 3 3h15" stroke-opacity="0.12" stroke="#000000" fill="#FFFFFF"/>
  <text style="fill: rgb(255, 0, 0); fill-opacity: 0.47; font-family: Arial, sans-serif; font-size: 4.7604px; font-weight: 700; line-height: 17.0159px; paint-order: stroke; stroke-miterlimit: 14.09; stroke-opacity: 0.79; stroke-width: 3.9234px; white-space: pre;" transform="matrix(7.502928, 0, 0, 9.873123, -124.204643, -406.350067)" x="17.45" y="48.343">SVG</text>
</svg>