<svg viewBox="0 0 256 256" xmlns="http://www.w3.org/2000/svg"><path fill="none" d="M0 0h256v256H0z"></path><path d="M192 160a8 8 0 0 0 8-8v-48a8 8 0 0 0-16 0v48a8 8 0 0 0 8 8ZM224 80a8 8 0 0 0-8 8v80a8 8 0 0 0 16 0V88a8 8 0 0 0-8-8ZM53.9 34.6a8 8 0 0 0-11.8 10.8L73.6 80H32a16 16 0 0 0-16 16v64a16 16 0 0 0 16 16h45.3l69.8 54.3a8.1 8.1 0 0 0 4.9 1.7 8.5 8.5 0 0 0 3.5-.8 8 8 0 0 0 4.5-7.2v-48.9l42.1 46.3a8 8 0 0 0 5.9 2.6 8.2 8.2 0 0 0 5.4-2.1 7.9 7.9 0 0 0 .5-11.3ZM146.1 112.2a7.9 7.9 0 0 0 5.9 2.6 7.4 7.4 0 0 0 2.9-.5 8 8 0 0 0 5.1-7.5V32a8 8 0 0 0-12.9-6.3l-39.9 31a8.1 8.1 0 0 0-1 11.7Z" fill="#ffffff" class="fill-000000"></path></svg>