<svg xmlns:xlink="http://www.w3.org/1999/xlink" xmlns="http://www.w3.org/2000/svg" viewBox="0 0 32 32" class="iwt3stqw s79hpmcy ksz6vod1" width="32"  height="32" ><path fill="#FF3B30" d="M16,4c1.9,0,3.4,1.4,3.4,3.1v8.6c0,1.7-1.5,3.1-3.4,3.1 c-1.9,0-3.4-1.4-3.4-3.1V7.1C12.6,5.4,14.1,4,16,4"></path><path fill="#FF3B30" d="M16.3,23.4c-0.2,0-0.6,0-0.9,0l-0.3,0c-3.7-0.4-6.6-3.7-7.1-7.8 L8,15.2c0-0.5,0.3-0.9,0.8-0.9h0.4c0.5,0,0.8,0.4,0.9,0.9l0.1,0.4c0.5,3.1,3,5.5,5.9,5.5c2.9,0,5.3-2.3,5.9-5.4l0.1-0.4 c0-0.5,0.4-0.9,0.9-0.9h0.4c0.4,0,0.8,0.4,0.8,0.9c0,0,0,0.1-0.1,0.6c-0.6,4.1-3.7,7.3-7.4,7.6L16.3,23.4z"></path><path fill="#FF3B30" d="M17.1,27.3c0,0.4-0.4,0.7-0.9,0.7h-0.5c-0.5,0-0.9-0.3-0.9-0.7V23 c0-0.4,0.4-0.7,0.9-0.7h0.5c0.5,0,0.9,0.3,0.9,0.7V27.3z"></path></svg>